Patient4_TMGait_0pt4_01_left_06_GRF.mot
version=1
nRows=33
nColumns=19
inDegrees=no
endheader
time	F1x	F1y	F1z	M1x	M1y	M1z	F2x	F2y	F2z	M2x	M2y	M2z	EC1x	EC1y	EC1z	EC2x	EC2y	EC2z
6.62	-4.8722	-15.4766	-9.6094	4.1325	8.9763	-10.0883	-34.6513	747.8174	-48.6743	277.3813	66.9458	807.5787	-0.0592	0.0182	-0.0073	-0.0462	0.0165	0.9585
6.6334	-3.3344	-9.5876	-6.3643	2.454	5.9447	-5.9379	-34.2808	736.6137	-48.9518	274.2159	67.3123	793.9799	-0.0592	0.0182	-0.0073	-0.0462	0.0165	0.9585
6.6467	-2.0235	-4.6115	-3.6326	1.0385	3.3846	-2.4318	-32.9999	727.7059	-48.8353	271.8283	66.8847	781.8541	-0.0592	0.0182	-0.0073	-0.0462	0.0165	0.9585
6.6601	-1.0124	-0.82571	-1.556	-0.037072	1.4354	0.233	-30.8069	722.4416	-48.4235	270.6749	65.7333	772.634	-0.0592	0.0182	-0.0073	-0.0462	0.0165	0.9585
6.6734	-0.31217	1.8006	-0.1331	-0.78178	0.093017	2.0877	-27.7986	721.427	-47.8737	270.9722	64.0377	767.0684	-0.0592	0.0182	-0.0073	-0.0462	0.0165	0.9585
6.6868	0.11467	3.4339	0.74088	-1.2409	-0.74636	3.2521	-24.114	724.5085	-47.3296	272.6691	61.9876	765.1431	-0.0592	0.0182	-0.0073	-0.0462	0.0165	0.9585
6.7001	0.31899	4.2784	1.1864	-1.4714	-1.198	3.8525	-19.883	730.8885	-46.9101	275.4743	59.7497	766.1875	-0.0592	0.0182	-0.0073	-0.0462	0.0165	0.9585
6.7135	0.34652	4.5412	1.3438	-1.5291	-1.394	4.0257	-15.2387	739.2818	-46.6681	278.9135	57.4294	769.0386	-0.0592	0.0182	-0.0073	-0.0462	0.0165	0.9585
6.7269	0.25708	4.3687	1.321	-1.4502	-1.4311	3.8489	-10.3297	748.1563	-46.6229	282.421	55.1023	772.2922	-0.0592	0.0182	-0.0073	-0.0462	0.0165	0.9585
6.7402	0.092402	3.8441	1.216	-1.2523	-1.4005	3.356	-5.2971	756.0563	-46.7379	285.4569	52.7937	774.6214	-0.0592	0.0182	-0.0073	-0.0462	0.0165	0.9585
6.7536	-0.11224	2.9959	1.0825	-0.93866	-1.3468	2.5226	-0.29325	761.8822	-46.9743	287.6075	50.536	775.0571	-0.0592	0.0182	-0.0073	-0.0462	0.0165	0.9585
6.7669	-0.32749	1.829	0.96381	-0.50633	-1.3058	1.3257	4.5114	765.0181	-47.2911	288.6362	48.3664	773.1081	-0.0592	0.0182	-0.0073	-0.0462	0.0165	0.9585
6.7803	-0.51335	0.33774	0.86144	0.0472	-1.2662	-0.24897	8.9789	765.3841	-47.7204	288.5014	46.3856	768.804	-0.0592	0.0182	-0.0073	-0.0462	0.0165	0.9585
6.7936	-0.6123	-1.4395	0.77999	0.70543	-1.2088	-2.1667	13.0161	763.4045	-48.3116	287.3516	44.7	762.6429	-0.0592	0.0182	-0.0073	-0.0462	0.0165	0.9585
6.807	-0.56009	-3.348	0.69183	1.409	-1.0775	-4.2497	16.5709	759.8694	-49.1428	285.4828	43.4265	755.4421	-0.0592	0.0182	-0.0073	-0.0462	0.0165	0.9585
6.8204	-0.25198	-5.0801	0.5689	2.0436	-0.80363	-6.1534	19.6689	755.7791	-50.2475	283.2831	42.6127	748.1746	-0.0592	0.0182	-0.0073	-0.0462	0.0165	0.9585
6.8337	0.42731	-6.0915	0.35815	2.408	-0.29137	-7.2602	22.4096	752.1147	-51.6447	281.1406	42.2625	741.7579	-0.0592	0.0182	-0.0073	-0.0462	0.0165	0.9585
6.8471	1.5973	-5.5452	0.021213	2.1914	0.54422	-6.6196	24.912	749.5331	-53.3079	279.3288	42.3221	736.7677	-0.0592	0.0182	-0.0073	-0.0462	0.0165	0.9585
6.8604	3.362	-2.2801	-0.48668	0.95964	1.7851	-2.9154	27.2531	748.1295	-55.2052	277.9089	42.7401	733.2381	-0.0592	0.0182	-0.0073	-0.0462	0.0165	0.9585
6.8738	5.763	5.1623	-1.1788	-1.8353	3.458	5.507	29.4661	747.3553	-57.245	276.6956	43.4201	730.587	-0.0592	0.0182	-0.0073	-0.0462	0.0165	0.9585
6.8871	8.7227	18.4132	-2.0414	-6.8042	5.5136	20.4916	31.5043	746.0306	-59.3049	275.2622	44.2595	727.6561	-0.0592	0.0182	-0.0073	-0.0462	0.0165	0.9585
6.9005	11.9286	38.9984	-2.9934	-14.5117	7.7438	43.7635	33.2461	742.4809	-61.1736	273.0014	45.0953	722.8421	-0.0592	0.0182	-0.0073	-0.0462	0.0165	0.9585
6.9139	14.7602	67.8064	-3.859	-25.2882	9.7149	76.336	34.5166	734.8312	-62.5882	269.2381	45.7344	714.3817	-0.0592	0.0182	-0.0073	-0.0462	0.0165	0.9585
6.9272	16.163	104.3508	-4.3309	-38.9509	10.683	117.6743	35.1201	721.3442	-63.2423	263.3565	45.9503	700.6612	-0.0592	0.0182	-0.0073	-0.0462	0.0165	0.9585
6.9406	14.8972	146.0616	-3.9262	-54.5226	9.644	164.9219	34.8843	700.7573	-62.8868	254.9224	45.5619	680.5152	-0.0592	0.0182	-0.0073	-0.0462	0.0165	0.9585
6.9539	10.7463	188.3736	-2.0845	-70.2462	5.8866	213.009	33.7353	672.7763	-61.3913	243.8562	44.4703	653.6714	-0.0592	0.0182	-0.0073	-0.0462	0.0165	0.9585
6.9673	4.8489	226.2022	1.5428	-84.211	-0.48204	256.1573	31.7853	638.4469	-58.8484	230.565	42.7247	621.0727	-0.0592	0.0182	-0.0073	-0.0462	0.0165	0.9585
6.9806	-1.3982	257.7182	6.3132	-95.7539	-8.2376	292.1333	29.3263	600.0976	-55.5676	215.9151	40.5112	584.8257	-0.0592	0.0182	-0.0073	-0.0462	0.0165	0.9585
6.994	-7.2759	284.3339	11.5851	-105.4292	-16.3822	322.4568	26.7815	560.5449	-51.987	200.9477	38.0849	547.4558	-0.0592	0.0182	-0.0073	-0.0462	0.0165	0.9585
7.0074	-12.402	308.4495	16.5588	-114.1802	-23.9098	349.8158	24.5831	522.2032	-48.4171	186.5581	35.5811	511.1072	-0.0592	0.0182	-0.0073	-0.0462	0.0165	0.9585
7.0207	-16.7262	331.859	20.9144	-122.7092	-30.4228	376.2591	23.0119	486.5057	-44.9641	173.2846	32.9992	477.0459	-0.0592	0.0182	-0.0073	-0.0462	0.0165	0.9585
7.0341	-20.3186	355.4077	24.3039	-131.356	-35.5753	402.7116	22.1409	453.8521	-41.5306	161.2825	30.222	445.6243	-0.0592	0.0182	-0.0073	-0.0462	0.0165	0.9585
7.0474	-23.186	379.2792	26.8481	-140.183	-39.4804	429.3596	21.8975	423.8805	-38.0151	150.4127	27.1768	416.5223	-0.0592	0.0182	-0.0073	-0.0462	0.0165	0.9585
